<?xml version="1.0" encoding="UTF-8"?>
<!DOCTYPE svg PUBLIC "-//W3C//DTD SVG 1.1//EN" "http://www.w3.org/Graphics/SVG/1.1/DTD/svg11.dtd">
<!-- Creator: CorelDRAW 2020 (64-Bit) -->
<svg xmlns="http://www.w3.org/2000/svg" xml:space="preserve" width="4.2334mm" height="4.2334mm" version="1.1" style="shape-rendering:geometricPrecision; text-rendering:geometricPrecision; image-rendering:optimizeQuality; fill-rule:evenodd; clip-rule:evenodd"
viewBox="0 0 25.84 25.84"
 xmlns:xlink="http://www.w3.org/1999/xlink"
 xmlns:xodm="http://www.corel.com/coreldraw/odm/2003">
 <defs>
  <style type="text/css">
   <![CDATA[
    .fil0 {fill:#05A545}
   ]]>
  </style>
 </defs>
 <g id="Слой_x0020_1">
  <metadata id="CorelCorpID_0Corel-Layer"/>
  <path class="fil0" d="M-0 0l25.84 0 0 25.84 -25.84 0 0 -25.84zm6.54 1.7l12.76 0c0.19,0 0.34,0.15 0.34,0.34l0 1.94c0,0.19 -0.15,0.34 -0.34,0.34l-12.76 0c-0.19,0 -0.34,-0.15 -0.34,-0.34l0 -1.94c0,-0.19 0.15,-0.34 0.34,-0.34zm-1 11.22c0,4.54 3.32,7.45 7.35,7.45 4.03,0 7.41,-2.93 7.41,-7.45 0,-4.54 -3.38,-7.45 -7.41,-7.45 -4.03,0 -7.35,2.91 -7.35,7.45zm2.93 0c0,-2.75 2.07,-4.39 4.43,-4.39 2.41,0 4.43,1.67 4.43,4.39 0,2.72 -2.03,4.39 -4.43,4.39 -2.39,0 -4.43,-1.67 -4.43,-4.39zm-1.93 8.6l12.76 0c0.19,0 0.34,0.15 0.34,0.34l0 1.94c0,0.19 -0.15,0.34 -0.34,0.34l-12.76 0c-0.19,0 -0.34,-0.15 -0.34,-0.34l0 -1.94c0,-0.19 0.15,-0.34 0.34,-0.34z"/>
 </g>
</svg>
