<svg width="1338" height="188" viewBox="0 0 1338 188" fill="none" xmlns="http://www.w3.org/2000/svg">
<path d="M159.128 72.104C122.84 68.648 103.064 66.92 99.8 66.92C96.728 66.92 94.712 67.4 93.752 68.36C92.984 69.32 92.6 71.432 92.6 74.696V139.784H101.816V87.656H172.664V185H116.792L113.912 177.512H112.76C102.776 184.424 89.72 187.88 73.592 187.88C25.016 187.88 0.728 156.872 0.728 94.856C0.728 64.136 8.024 41.288 22.616 26.312C37.4 11.144 61.88 3.55998 96.056 3.55998C115.832 3.55998 139.352 5.86399 166.616 10.472L159.128 72.104ZM326.825 85.352L325.385 134.888C325.385 139.496 327.785 141.8 332.585 141.8L328.553 186.728C317.033 187.496 307.817 187.88 300.905 187.88C283.625 187.88 271.145 184.904 263.465 178.952H262.025C250.505 184.904 237.833 187.88 224.009 187.88C191.753 187.88 175.625 173.864 175.625 145.832C175.625 128.36 182.345 116.456 195.785 110.12C202.889 106.856 210.761 104.552 219.401 103.208C228.041 101.864 238.985 100.904 252.233 100.328V94.28L186.569 99.752L181.097 49.064C209.705 45.416 235.913 43.592 259.721 43.592C283.721 43.592 300.905 46.76 311.273 53.096C321.641 59.432 326.825 70.184 326.825 85.352ZM249.353 128.552V151.592H255.113V128.552H249.353ZM333.701 93.416C333.701 76.904 339.365 64.52 350.693 56.264C362.213 47.816 378.917 43.592 400.805 43.592C422.693 43.592 443.621 45.416 463.589 49.064L459.557 95.144L404.549 89.096V93.128C415.493 94.088 424.421 95.432 431.333 97.16C438.437 98.696 444.773 101.192 450.341 104.648C460.901 111.176 466.181 123.176 466.181 140.648C466.181 172.136 445.157 187.88 403.109 187.88C380.837 187.88 358.469 186.056 336.005 182.408L338.021 137.48L397.061 144.392V140.36C386.309 138.824 377.477 137.192 370.565 135.464C363.845 133.736 357.413 131.24 351.269 127.976C339.557 121.448 333.701 109.928 333.701 93.416ZM524.607 187.88C507.135 187.88 494.367 184.712 486.303 178.376C478.431 171.848 474.495 161.384 474.495 146.984V91.4H466.719V47.048H477.663L481.119 20.552H549.951V47.048H565.503L563.487 91.4H549.951V130.28C549.951 134.504 551.967 136.616 555.999 136.616H562.911L561.183 185C546.975 186.92 534.783 187.88 524.607 187.88ZM644.624 119.336V185H568.88V47.048H632.24L632.816 54.248H633.968C639.728 48.68 650.384 45.896 665.936 45.896L662.768 105.224H659.312C653.936 105.224 650.096 106.184 647.792 108.104C645.68 110.024 644.624 113.768 644.624 119.336ZM667.558 115.592C667.558 90.248 674.086 71.912 687.142 60.584C700.39 49.256 720.934 43.592 748.774 43.592C776.614 43.592 796.87 49.16 809.542 60.296C822.406 71.432 828.838 89.768 828.838 115.304C828.838 140.648 822.598 159.08 810.118 170.6C797.83 182.12 777.478 187.88 749.062 187.88C720.646 187.88 699.91 182.12 686.854 170.6C673.99 159.08 667.558 140.744 667.558 115.592ZM751.654 147.272V92.552H745.894V147.272H751.654ZM982.446 126.248C982.446 167.336 957.774 187.88 908.43 187.88C884.046 187.88 859.758 185 835.566 179.24L837.87 126.824L904.11 139.496V134.312C891.246 131.624 880.782 128.936 872.718 126.248C864.654 123.368 857.166 119.432 850.254 114.44C836.814 104.84 830.094 89.576 830.094 68.648C830.094 47.528 836.43 31.4 849.102 20.264C861.966 9.12799 880.206 3.55998 903.822 3.55998C927.438 3.55998 952.11 5.57599 977.838 9.60799L972.366 66.92L908.142 57.128V62.6C933.87 66.056 952.686 72.296 964.59 81.32C976.494 90.152 982.446 105.128 982.446 126.248ZM983.683 115.592C983.683 90.248 990.211 71.912 1003.27 60.584C1016.52 49.256 1037.06 43.592 1064.9 43.592C1092.74 43.592 1113 49.16 1125.67 60.296C1138.53 71.432 1144.96 89.768 1144.96 115.304C1144.96 140.648 1138.72 159.08 1126.24 170.6C1113.96 182.12 1093.6 187.88 1065.19 187.88C1036.77 187.88 1016.04 182.12 1002.98 170.6C990.115 159.08 983.683 140.744 983.683 115.592ZM1067.78 147.272V92.552H1062.02V147.272H1067.78ZM1203.82 0.679987C1213.03 0.679987 1226.09 1.25599 1242.99 2.408L1240.39 43.592H1228.3V48.488H1240.11L1238.38 91.4H1229.45V185H1153.99V91.4H1146.22V48.488H1153.99V43.016C1153.99 28.424 1157.83 17.768 1165.51 11.048C1173.19 4.13599 1185.96 0.679987 1203.82 0.679987ZM1296.64 187.88C1279.17 187.88 1266.4 184.712 1258.33 178.376C1250.46 171.848 1246.53 161.384 1246.53 146.984V91.4H1238.75V47.048H1249.69L1253.15 20.552H1321.98V47.048H1337.53L1335.52 91.4H1321.98V130.28C1321.98 134.504 1324 136.616 1328.03 136.616H1334.94L1333.21 185C1319.01 186.92 1306.81 187.88 1296.64 187.88Z" fill="#05A545"/>
</svg>
