<?xml version="1.0" encoding="UTF-8"?>
<svg width="18px" height="23px" viewBox="0 0 18 23" version="1.1" xmlns="http://www.w3.org/2000/svg" xmlns:xlink="http://www.w3.org/1999/xlink">
    <!-- Generator: Sketch 52.4 (67378) - http://www.bohemiancoding.com/sketch -->
    <title>apple</title>
    <desc>Created with Sketch.</desc>
    <g id="Page-1" stroke="none" stroke-width="1" fill="none" fill-rule="evenodd">
        <g id="Group" transform="translate(-10.000000, -16.000000)" fill="#FFFFFF">
            <g id="apple" transform="translate(10.569062, 16.800000)">
                <path d="M0.894233441,8.27989231 C-0.898350716,11.436734 0.241228089,16.2274149 2.22353349,19.1321749 C3.21301769,20.5844139 4.21480702,21.888 5.58693164,21.888 C5.61279324,21.888 5.63872436,21.8875062 5.66528116,21.8864479 C6.30994406,21.8603437 6.77580043,21.6589183 7.22622327,21.4642656 C7.73191483,21.2455551 8.25491698,21.0194364 9.07525801,21.0194364 C9.85569429,21.0194364 10.3537386,21.2382177 10.8353761,21.449732 C11.3100616,21.6581421 11.7989987,21.8737485 12.5214549,21.8599909 C14.0670331,21.8307825 15.0159869,20.4241201 15.8532213,19.1831839 C16.7268845,17.8874996 17.1651413,16.6294899 17.3130113,16.1487497 L17.31899,16.1296301 C17.3471457,16.0441919 17.3073801,15.9509223 17.2266669,15.9133183 C17.2244422,15.9122599 17.2162388,15.9088029 17.2139446,15.9078151 C16.9417722,15.7948617 14.5543017,14.7200046 14.5292048,11.7904103 C14.5059155,9.41027375 16.3202596,8.14986529 16.6841295,7.92141847 L16.7010925,7.91069459 C16.7405106,7.88494316 16.7679711,7.84409366 16.7772869,7.79738835 C16.7866026,7.75075358 16.7768697,7.70221392 16.7504519,7.6629871 C15.498111,5.80309974 13.5786521,5.52279732 12.805863,5.48907354 C12.6937266,5.47771469 12.5779751,5.472 12.4617369,5.472 C11.5540783,5.472 10.6845863,5.81989108 9.9860451,6.09941743 C9.50385143,6.29237668 9.08735456,6.45902012 8.80009616,6.45902012 C8.47731282,6.45902012 8.05845227,6.29033069 7.57340826,6.09504322 C6.9247827,5.83378978 6.1896042,5.53775431 5.41132306,5.53775431 C5.3927611,5.53775431 5.37447723,5.53796596 5.35647143,5.53831872 C3.54685478,5.56534008 1.8369304,6.61599793 0.894233441,8.27989231 Z" id="XMLID_229_"></path>
                <path d="M12.5664332,0.000141596455 C11.4740339,0.0474525523 10.1636122,0.762496485 9.38036683,1.73804545 C8.7147261,2.55802832 8.06447029,3.9251823 8.23578356,5.30324285 C8.24652529,5.38946375 8.3125003,5.4560086 8.39406814,5.46271468 C8.46780492,5.4688312 8.54306633,5.47192631 8.61805053,5.472 C9.68619427,5.472 10.83847,4.84361913 11.6253884,3.83181317 C12.4536103,2.76341094 12.8723991,1.39227753 12.7457161,0.164108694 C12.7357366,0.0678655348 12.6561092,-0.0036167505 12.5664332,0.000141596455 Z" id="XMLID_230_"></path>
            </g>
        </g>
    </g>
</svg>