<?xml version="1.0" encoding="UTF-8"?>
<svg width="16px" height="16px" viewBox="0 0 16 16" version="1.1" xmlns="http://www.w3.org/2000/svg" xmlns:xlink="http://www.w3.org/1999/xlink">
    <g id="Page-1" stroke="none" stroke-width="1" fill="none" fill-rule="evenodd">
        <g id="Group-2" fill="#DADADA" fill-rule="nonzero">
            <path d="M0.439339828,2.56066017 C-0.146446609,1.97487373 -0.146446609,1.02512627 0.439339828,0.439339828 C1.02512627,-0.146446609 1.97487373,-0.146446609 2.56066017,0.439339828 L15.0151341,12.8938138 C15.6009206,13.4796002 15.6009206,14.4293477 15.0151341,15.0151341 C14.4293477,15.6009206 13.4796002,15.6009206 12.8938138,15.0151341 L0.439339828,2.56066017 Z" id="Line" transform="translate(7.727237, 7.727237) scale(-1, 1) translate(-7.727237, -7.727237) "></path>
            <path d="M0.439339828,2.56066017 C-0.146446609,1.97487373 -0.146446609,1.02512627 0.439339828,0.439339828 C1.02512627,-0.146446609 1.97487373,-0.146446609 2.56066017,0.439339828 L15.0151341,12.8938138 C15.6009206,13.4796002 15.6009206,14.4293477 15.0151341,15.0151341 C14.4293477,15.6009206 13.4796002,15.6009206 12.8938138,15.0151341 L0.439339828,2.56066017 Z" id="Line"></path>
        </g>
    </g>
</svg>