<?xml version="1.0" encoding="UTF-8"?>
<svg width="18px" height="20px" viewBox="0 0 18 20" version="1.1" xmlns="http://www.w3.org/2000/svg" xmlns:xlink="http://www.w3.org/1999/xlink">
    <!-- Generator: Sketch 52.4 (67378) - http://www.bohemiancoding.com/sketch -->
    <title>google-play</title>
    <desc>Created with Sketch.</desc>
    <g id="Page-1" stroke="none" stroke-width="1" fill="none" fill-rule="evenodd">
        <g id="Group" transform="translate(-12.000000, -49.000000)">
            <g id="google-play" transform="translate(12.089062, 49.823438)">
                <path d="M0.0774872301,0.8448 C0.0314604806,1.00527536 0,1.17835901 0,1.37606518 L0,17.638536 C0,17.8332717 0.0314604806,18.004507 0.0756913887,18.1632 L9.27219512,9.51608021 C9.27219512,9.5160142 0.0774872301,0.8448 0.0774872301,0.8448 Z" id="Shape" fill="#15CEAD"></path>
                <path d="M12.6439025,6.287149 L2.03412471,0.275852307 C1.61114267,0.0138454557 1.19473275,-0.0525599599 0.842926829,0.0388144276 L9.96832412,8.8704 C9.96832412,8.8704 12.6439025,6.287149 12.6439025,6.287149 Z" id="Shape" fill="#0FEEC6"></path>
                <path d="M16.4414383,8.43516866 L13.524452,6.7584 L10.5365854,9.68270692 L13.5798969,12.672 L16.4180146,11.0614766 C17.8034613,10.2456871 17.2980931,8.93253308 16.4414383,8.43516866 Z" id="Shape" fill="#FFAD38"></path>
                <path d="M0.842926829,18.9615219 C1.19835426,19.063366 1.62283991,19.0023935 2.05445373,18.7333776 L12.6439025,12.7763677 L9.9333023,10.1376 C9.9333023,10.137667 0.842926829,18.9615219 0.842926829,18.9615219 Z" id="Shape" fill="#ED5044"></path>
            </g>
        </g>
    </g>
</svg>